<?xml version="1.0" encoding="utf-8"?>
<svg viewBox="17.673 12.917 66.208 69.02" fill="#fff" xmlns="http://www.w3.org/2000/svg">
  <g>
    <path d="m63.012 46.898c-1.9609-1.6484-4.9102-1.4219-6.5703 0.53125l-1.3711 1.6094c-0.050781 0.050782-0.12109 0.070313-0.19141 0.050782-1.8086-0.60938-5.1797-2.3203-7.3984-6.9414-0.019531-0.050782-0.011719-0.10938 0.03125-0.16016l1.7109-1.9805c1.6484-1.9102 1.4688-4.8398-0.41016-6.5195l-3.8203-3.4492c-0.92969-0.83984-2.1484-1.2695-3.3906-1.1914-1.25 0.070313-2.3984 0.62891-3.2383 1.5703l-2.3008 2.6016c-1.0312 1.1602-1.6484 2.6602-1.7617 4.2109-0.23047 3.3203 0.21094 11.789 9.1797 18.828 0.76172 0.67969 7.2305 6.25 14.488 6.25 1.4219 0 2.8789-0.21094 4.3203-0.71875 1.1602-0.41016 2.2109-1.1211 3.0195-2.0586l2.25-2.6094c0.82031-0.94922 1.2188-2.1719 1.1211-3.4219-0.10156-1.25-0.67969-2.3906-1.6406-3.1992zm1.5195 7.4219-2.25 2.6094c-0.35156 0.41016-0.80859 0.71875-1.3086 0.89844-6.8516 2.3984-14.781-4.6992-14.859-4.7617l-0.11328-0.10547c-7.2383-5.6602-7.9414-12.102-7.7109-15.449 0.050782-0.67969 0.32031-1.3281 0.76953-1.8281l2.3008-2.6016c0.16016-0.17969 0.35938-0.21875 0.46875-0.23047h0.039063c0.10937 0 0.28906 0.03125 0.44922 0.17188l3.8203 3.4492c0.26953 0.23828 0.28906 0.66016 0.058593 0.94141l-1.7109 1.9805c-1.0781 1.2617-1.3281 3.0312-0.60938 4.5117 2.8516 5.9414 7.3203 8.1797 9.7305 9 1.6211 0.55078 3.3984 0.058594 4.5117-1.2383l1.3711-1.6094c0.23828-0.28125 0.66016-0.30859 0.94141-0.078125l4.0312 3.4102c0.19141 0.16016 0.23047 0.35938 0.23828 0.46094 0 0.078126-0.007813 0.27734-0.16797 0.46875z"/>
    <path d="m51.289 13.078c-8.6914 0-16.859 3.3906-23.012 9.5312-10.781 10.781-12.602 27.621-4.4883 40.41l-6.1289 18.941 18.078-7.75c12.621 6.8789 28.34 4.6484 38.57-5.5781 12.691-12.691 12.691-33.328 0-46.02-6.1484-6.1523-14.32-9.5352-23.02-9.5352zm20.191 52.723c-9.1797 9.1797-23.422 11.02-34.602 4.4609l-0.87891-0.52344-11.82 5.0703 4.0117-12.398-0.55078-0.80859c-7.6484-11.289-6.1914-26.5 3.4688-36.16 5.3906-5.3906 12.559-8.3594 20.18-8.3594 7.6211 0 14.789 2.9688 20.18 8.3594 11.133 11.117 11.133 29.23 0.011719 40.359z"/>
  </g>
</svg>
