<svg xmlns="http://www.w3.org/2000/svg" version="1.1" viewBox="-5.0 -10.0 110.0 135.0" stroke="#fff" fill="#fff">
 <path d="m10.176 21c-1.3164 0-2.6484 0.39453-3.4688 1.4219-1.6328 2.0352-2.7773 5.3125-0.14062 8.9141 0.89844 1.2227 2.4258 1.7578 3.9453 1.7578h78.977c1.5195 0 3.0469-0.53516 3.9453-1.7578 2.6367-3.6016 1.4922-6.8789-0.14062-8.9141-0.82031-1.0273-2.1523-1.4219-3.4688-1.4219zm0 23.43c-1.3164 0-2.6484 0.39062-3.4688 1.418-1.6328 2.0391-2.7773 5.3164-0.14062 8.9141 0.89844 1.2266 2.4258 1.7617 3.9453 1.7617h78.977c1.5195 0 3.0469-0.53516 3.9453-1.7617 2.6367-3.5977 1.4922-6.875-0.14062-8.9141-0.82031-1.0273-2.1523-1.418-3.4688-1.418zm-3.4688 24.848c0.82031-1.0273 2.1523-1.4219 3.4688-1.4219h79.648c1.3164 0 2.6484 0.39453 3.4688 1.4219 1.6328 2.0352 2.7773 5.3125 0.14062 8.9141-0.89844 1.2266-2.4258 1.7578-3.9453 1.7578h-78.977c-1.5195 0-3.0469-0.53125-3.9453-1.7578-2.6367-3.6016-1.4922-6.8789 0.14062-8.9141z" fill-rule="evenodd"/>
 <path d="m6.707 22.422 1.168 0.9375zm-0.14062 8.9141-1.2109 0.88281zm86.867 0-1.207-0.88672zm-0.14062-8.9141-1.168 0.9375zm-86.586 23.426 1.168 0.9375zm-0.14062 8.9141-1.2109 0.88672zm86.867 0 1.2109 0.88672zm-0.14062-8.9141-1.168 0.9375zm-86.586 23.43-1.1719-0.9375zm86.586 0-1.168 0.9375zm0.14062 8.9141 1.2109 0.88672zm-86.867 0-1.2109 0.88672zm1.3086-54.832c0.42969-0.53516 1.2305-0.85938 2.3008-0.85938v-3c-1.5625 0-3.4258 0.46484-4.6406 1.9844zm-0.10156 7.0898c-1.1094-1.5195-1.3672-2.8711-1.2461-4 0.12109-1.168 0.66016-2.2305 1.3477-3.0898l-2.3398-1.875c-0.94531 1.1797-1.793 2.7695-1.9922 4.6523-0.20312 1.9141 0.28906 4.0039 1.8125 6.082zm2.7383 1.1445c-1.2148 0-2.2109-0.42578-2.7383-1.1445l-2.418 1.7695c1.2695 1.7344 3.332 2.375 5.1562 2.375zm78.977 0h-78.977v3h78.977zm2.7383-1.1445c-0.52734 0.71875-1.5234 1.1445-2.7383 1.1445v3c1.8242 0 3.8867-0.64062 5.1562-2.375zm-0.10156-7.0898c0.6875 0.85938 1.2266 1.9219 1.3477 3.0898 0.12109 1.1289-0.13672 2.4805-1.2461 4l2.418 1.7695c1.5234-2.0781 2.0156-4.168 1.8125-6.082-0.19922-1.8828-1.0469-3.4727-1.9922-4.6523zm-2.3008-0.85938c1.0703 0 1.8711 0.32422 2.3008 0.85938l2.3398-1.875c-1.2148-1.5195-3.0781-1.9844-4.6406-1.9844zm-79.648 0h79.648v-3h-79.648zm-2.3008 24.285c0.42969-0.53516 1.2305-0.85547 2.3008-0.85547v-3c-1.5625 0-3.4258 0.46094-4.6406 1.9805zm-0.10156 7.0898c-1.1094-1.5156-1.3672-2.8672-1.2461-3.9961 0.12109-1.168 0.66016-2.2344 1.3477-3.0938l-2.3398-1.875c-0.94531 1.1797-1.793 2.7734-1.9922 4.6523-0.20312 1.918 0.28906 4.0039 1.8125 6.0859zm2.7383 1.1484c-1.2148 0-2.2109-0.42969-2.7383-1.1484l-2.418 1.7734c1.2695 1.7344 3.332 2.375 5.1562 2.375zm78.977 0h-78.977v3h78.977zm2.7383-1.1484c-0.52734 0.71875-1.5234 1.1484-2.7383 1.1484v3c1.8242 0 3.8867-0.64063 5.1562-2.375zm-0.10156-7.0898c0.6875 0.85938 1.2266 1.9258 1.3477 3.0938 0.12109 1.1289-0.13672 2.4805-1.2461 3.9961l2.418 1.7734c1.5234-2.082 2.0156-4.168 1.8125-6.0859-0.19922-1.8789-1.0469-3.4727-1.9922-4.6523zm-2.3008-0.85547c1.0703 0 1.8711 0.32031 2.3008 0.85547l2.3398-1.875c-1.2148-1.5195-3.0781-1.9805-4.6406-1.9805zm-79.648 0h79.648v-3h-79.648zm0 20.426c-1.5625 0-3.4258 0.46484-4.6406 1.9844l2.3398 1.875c0.42969-0.53516 1.2305-0.85938 2.3008-0.85938zm79.648 0h-79.648v3h79.648zm4.6406 1.9844c-1.2148-1.5195-3.0781-1.9844-4.6406-1.9844v3c1.0703 0 1.8711 0.32422 2.3008 0.85938zm0.17969 10.738c1.5234-2.082 2.0156-4.1719 1.8125-6.0859-0.19922-1.8828-1.0469-3.4727-1.9922-4.6523l-2.3398 1.875c0.6875 0.85938 1.2266 1.9219 1.3477 3.0898 0.12109 1.1328-0.13672 2.4805-1.2461 4zm-5.1562 2.3711c1.8242 0 3.8867-0.64062 5.1562-2.3711l-2.418-1.7734c-0.52734 0.71875-1.5234 1.1445-2.7383 1.1445zm-78.977 0h78.977v-3h-78.977zm-5.1562-2.3711c1.2695 1.7305 3.332 2.3711 5.1562 2.3711v-3c-1.2148 0-2.2109-0.42578-2.7383-1.1445zm0.17969-10.738c-0.94531 1.1797-1.793 2.7695-1.9922 4.6523-0.20312 1.9141 0.28906 4.0039 1.8125 6.0859l2.418-1.7734c-1.1094-1.5195-1.3672-2.8672-1.2461-4 0.12109-1.168 0.66016-2.2305 1.3477-3.0898z"/>
</svg>