<svg xmlns="http://www.w3.org/2000/svg" version="1.1" viewBox="-5.0 -10.0 110.0 135.0" stroke="#fff" fill="#fff">
 <path d="m91 13h-44.18c-0.96094-5.6719-5.8789-10-11.82-10s-10.859 4.3281-11.82 10h-14.18c-3.3086 0-6 2.6914-6 6v52c0 3.3086 2.6914 6 6 6h34v6h-9c-3.3086 0-6 2.6914-6 6v2c0 3.3086 2.6914 6 6 6h32c3.3086 0 6-2.6914 6-6v-2c0-3.3086-2.6914-6-6-6h-9v-6h34c3.3086 0 6-2.6914 6-6v-52c0-3.3086-2.6914-6-6-6zm2 6v39h-46v-21h13c3.8594 0 7-3.1406 7-7s-3.1406-7-7-7h-16.078c1.4805-1.6484 2.5117-3.7188 2.8984-6h44.18c1.1016 0 2 0.89844 2 2zm-66 39v-23c0-1.1016-0.89844-2-2-2s-2 0.89844-2 2v18c-3.3086 0-6-2.6914-6-6v-14c0-3.3086 2.6914-6 6-6h37c1.6484 0 3 1.3516 3 3s-1.3516 3-3 3h-15c-1.1016 0-2 0.89844-2 2v23zm8-51c4.4102 0 8 3.5898 8 8s-3.5898 8-8 8-8-3.5898-8-8 3.5898-8 8-8zm-26 10h14.18c0.39062 2.2812 1.4219 4.3516 2.8984 6h-3.0781c-5.5117 0-10 4.4883-10 10v14c0 5.5117 4.4883 10 10 10v1h-16v-39c0-1.1016 0.89844-2 2-2zm59 72v2c0 1.1016-0.89844 2-2 2h-32c-1.1016 0-2-0.89844-2-2v-2c0-1.1016 0.89844-2 2-2h32c1.1016 0 2 0.89844 2 2zm-15-6h-6v-6h6zm38-10h-82c-1.1016 0-2-0.89844-2-2v-9h85.957v9c0 1.1016-0.89844 2-2 2z"/>
 <path d="m55 65h-10c-1.1016 0-2 0.89844-2 2s0.89844 2 2 2h10c1.1016 0 2-0.89844 2-2s-0.89844-2-2-2z"/>
 <path d="m75 27h10c1.1016 0 2-0.89844 2-2s-0.89844-2-2-2h-10c-1.1016 0-2 0.89844-2 2s0.89844 2 2 2z"/>
 <path d="m75 37h10c1.1016 0 2-0.89844 2-2s-0.89844-2-2-2h-10c-1.1016 0-2 0.89844-2 2s0.89844 2 2 2z"/>
 <path d="m85 43h-30c-1.1016 0-2 0.89844-2 2s0.89844 2 2 2h30c1.1016 0 2-0.89844 2-2s-0.89844-2-2-2z"/>
</svg>
